<svg xmlns="http://www.w3.org/2000/svg" xmlns:xlink="http://www.w3.org/1999/xlink" width="500" zoomAndPan="magnify" viewBox="0 0 375 374.999991" height="500" preserveAspectRatio="xMidYMid meet" version="1.2"><defs><clipPath id="08b750210a"><path d="M 115 155.601562 L 370.667969 155.601562 L 370.667969 375 L 115 375 Z M 115 155.601562 "/></clipPath><clipPath id="7b76bcb473"><path d="M 4.667969 200 L 148 200 L 148 269 L 4.667969 269 Z M 4.667969 200 "/></clipPath><clipPath id="0e1342ae39"><path d="M 5 155.601562 L 179 155.601562 L 179 249 L 5 249 Z M 5 155.601562 "/></clipPath><clipPath id="9b0072f1bb"><path d="M 103.15625 29.660156 L 191 29.660156 L 191 345.410156 L 103.15625 345.410156 Z M 103.15625 29.660156 "/></clipPath><clipPath id="f68d7ff2dc"><path d="M 193 29.660156 L 280.90625 29.660156 L 280.90625 268 L 193 268 Z M 193 29.660156 "/></clipPath><clipPath id="7427bfb3a3"><path d="M 218 193 L 280.90625 193 L 280.90625 345.410156 L 218 345.410156 Z M 218 193 "/></clipPath></defs><g id="a19dc300cd"><g clip-rule="nonzero" clip-path="url(#08b750210a)"><path style=" stroke:none;fill-rule:nonzero;fill:#ff5900;fill-opacity:1;" d="M 215.523438 372.851562 C 218.507812 357.941406 225.085938 342.167969 237.503906 326.882812 C 257.671875 302.058594 306.359375 284.320312 354.367188 266.992188 C 351.140625 274.175781 347.457031 281.113281 343.363281 287.773438 C 303.117188 302.515625 265.128906 317.925781 249.757812 336.847656 C 241.011719 347.613281 235.65625 358.667969 232.617188 369.371094 C 227.019531 370.789062 221.320312 371.957031 215.527344 372.847656 Z M 366.691406 155.605469 C 368.242188 163.253906 369.308594 171.078125 369.875 179.042969 C 349.140625 199.421875 306.6875 214.746094 263.484375 230.335938 C 217.097656 247.074219 169.773438 264.15625 152.15625 285.839844 C 128.3125 315.1875 129.652344 346.710938 134.503906 367.175781 C 128.632812 365.398438 122.886719 363.339844 117.28125 361.003906 C 113.652344 337.53125 115.617188 305.761719 139.898438 275.871094 C 160.265625 250.808594 209.699219 232.964844 258.160156 215.480469 C 310.390625 196.632812 361.402344 178.21875 366.691406 155.605469 Z M 370.164062 200.042969 C 369.902344 206.25 369.328125 212.375 368.460938 218.40625 C 347.605469 228.71875 321.949219 237.980469 296.019531 247.339844 C 249.632812 264.078125 202.308594 281.160156 184.691406 302.84375 C 164.640625 327.519531 162.402344 353.730469 165.078125 373.617188 C 159.617188 372.945312 154.230469 372.039062 148.929688 370.898438 C 146.789062 348.34375 150.523438 319.84375 172.433594 292.878906 C 192.796875 267.8125 242.234375 249.972656 290.695312 232.484375 C 320.269531 221.8125 349.449219 211.277344 370.164062 200.042969 Z M 365.585938 233.753906 C 364.078125 240.238281 362.214844 246.585938 360.035156 252.789062 C 349.792969 256.675781 339.195312 260.503906 328.550781 264.34375 C 282.164062 281.082031 234.84375 298.164062 217.226562 319.84375 C 202.15625 338.394531 197.148438 357.808594 196.726562 374.757812 C 193.667969 374.90625 190.597656 374.988281 187.5 374.988281 C 185.308594 374.988281 183.128906 374.9375 180.957031 374.859375 C 181.324219 354.882812 187.101562 331.871094 204.96875 309.882812 C 225.332031 284.816406 274.769531 266.976562 323.226562 249.488281 C 337.761719 244.242188 352.199219 239.03125 365.585938 233.753906 Z M 365.585938 233.753906 "/></g><g clip-rule="nonzero" clip-path="url(#7b76bcb473)"><path style=" stroke:none;fill-rule:evenodd;fill:#ff5900;fill-opacity:1;" d="M 6.539062 218.402344 C 27.398438 228.71875 53.054688 237.980469 78.984375 247.339844 C 97.886719 254.160156 116.949219 261.039062 134.089844 268.261719 C 137.90625 264.316406 142.441406 260.546875 147.578125 256.929688 C 128.117188 248.292969 106.113281 240.351562 84.3125 232.484375 C 54.734375 221.8125 25.550781 211.277344 4.839844 200.039062 C 5.105469 206.246094 5.671875 212.371094 6.542969 218.402344 Z M 6.539062 218.402344 "/></g><path style=" stroke:none;fill-rule:evenodd;fill:#ff5900;fill-opacity:1;" d="M 51.777344 249.488281 C 37.242188 244.242188 22.804688 239.03125 9.414062 233.753906 C 10.925781 240.238281 12.789062 246.585938 14.964844 252.785156 C 25.207031 256.675781 35.804688 260.5 46.453125 264.34375 C 71.4375 273.359375 96.699219 282.476562 117.441406 292.359375 C 119.714844 287.835938 122.410156 283.308594 125.574219 278.804688 C 103.734375 268.238281 77.617188 258.8125 51.777344 249.484375 Z M 51.777344 249.488281 "/><path style=" stroke:none;fill-rule:evenodd;fill:#ff5900;fill-opacity:1;" d="M 31.636719 287.773438 C 60.804688 298.457031 88.78125 309.492188 107.828125 321.960938 C 108.6875 316.707031 109.976562 311.328125 111.796875 305.882812 C 87.585938 291.234375 53.949219 279.015625 20.636719 266.992188 C 23.863281 274.175781 27.546875 281.117188 31.636719 287.773438 Z M 31.636719 287.773438 "/><g clip-rule="nonzero" clip-path="url(#0e1342ae39)"><path style=" stroke:none;fill-rule:evenodd;fill:#ff5900;fill-opacity:1;" d="M 5.128906 179.039062 C 25.863281 199.421875 68.3125 214.746094 111.519531 230.335938 C 128.226562 236.367188 145.054688 242.441406 160.574219 248.757812 C 166.265625 245.523438 172.402344 242.40625 178.878906 239.382812 C 159.722656 230.953125 138.1875 223.183594 116.84375 215.480469 C 64.613281 196.632812 13.597656 178.21875 8.3125 155.605469 C 6.757812 163.253906 5.691406 171.078125 5.128906 179.042969 Z M 5.128906 179.039062 "/></g><g clip-rule="nonzero" clip-path="url(#9b0072f1bb)"><path style=" stroke:none;fill-rule:nonzero;fill:#050505;fill-opacity:1;" d="M 165.523438 84.1875 L 103.15625 118.242188 L 103.15625 285.351562 L 165.054688 345.292969 L 165.054688 210.429688 L 129.886719 193.167969 L 129.886719 168.648438 L 172.085938 186.8125 L 172.085938 249.023438 L 190.84375 267.1875 L 190.84375 29.695312 L 165.523438 44.226562 L 165.523438 84.1875 "/></g><g clip-rule="nonzero" clip-path="url(#f68d7ff2dc)"><path style=" stroke:none;fill-rule:nonzero;fill:#a6a6a6;fill-opacity:1;" d="M 200.066406 183.933594 L 200.066406 88.273438 L 280.714844 118.242188 L 218.355469 84.1875 L 218.355469 44.226562 L 193.03125 29.695312 L 193.03125 267.1875 L 211.785156 249.023438 L 211.785156 186.8125 L 253.988281 168.648438 L 200.066406 183.933594 "/></g><g clip-rule="nonzero" clip-path="url(#7427bfb3a3)"><path style=" stroke:none;fill-rule:nonzero;fill:#a6a6a6;fill-opacity:1;" d="M 226.632812 216.027344 L 253.988281 193.167969 L 218.820312 210.429688 L 218.820312 345.292969 L 280.714844 285.351562 L 226.632812 324.101562 L 226.632812 216.027344 "/></g></g></svg>