<svg id="Layer_1" data-name="Layer 1" xmlns="http://www.w3.org/2000/svg" viewBox="0 0 444.49 156.76"><defs><style>.cls-1{fill:#fff;}</style></defs><path class="cls-1" d="M61.64,103.29a16.26,16.26,0,0,1-6.93-5.39,14.26,14.26,0,0,1-2.62-8.31H63.32a7.27,7.27,0,0,0,2.28,5.09,8.08,8.08,0,0,0,5.65,1.87A8.67,8.67,0,0,0,77,94.79a5.72,5.72,0,0,0,2.09-4.6,5.31,5.31,0,0,0-1.42-3.82A10,10,0,0,0,74.13,84a60.67,60.67,0,0,0-5.87-1.9,63.73,63.73,0,0,1-8.27-3,14.36,14.36,0,0,1-5.46-4.42,12.52,12.52,0,0,1-2.29-7.89,14.19,14.19,0,0,1,2.32-8.09,14.8,14.8,0,0,1,6.51-5.27,23.76,23.76,0,0,1,9.58-1.84q8.09,0,13.14,3.93a14.58,14.58,0,0,1,5.58,11H77.84a6,6,0,0,0-2.28-4.46,8.63,8.63,0,0,0-5.65-1.75A7.29,7.29,0,0,0,65,61.9a5.69,5.69,0,0,0-1.83,4.56,4.72,4.72,0,0,0,1.38,3.48A10.42,10.42,0,0,0,68,72.19q2.06.86,5.8,2a61.27,61.27,0,0,1,8.31,3,14.77,14.77,0,0,1,5.53,4.49A12.43,12.43,0,0,1,90,89.52a14.76,14.76,0,0,1-2.17,7.78A15.34,15.34,0,0,1,81.43,103a21.7,21.7,0,0,1-10,2.13A24.7,24.7,0,0,1,61.64,103.29Z"/><path class="cls-1" d="M116.56,60.78V73.87h17.59v8.31H116.56V96H136.4v8.53H106.09V52.24H136.4v8.54Z"/><path class="cls-1" d="M245.73,52V84.35q0,5.31,2.76,8.12t7.79,2.81q5.09,0,7.86-2.81c1.84-1.87,2.77-4.58,2.77-8.12V52h10.55V84.28a20.82,20.82,0,0,1-2.88,11.26,18.2,18.2,0,0,1-7.71,6.92,24.44,24.44,0,0,1-10.74,2.32,23.78,23.78,0,0,1-10.59-2.32A17.56,17.56,0,0,1,238,95.54a21.44,21.44,0,0,1-2.77-11.26V52Z"/><path class="cls-1" d="M328.58,52.28v8.46H314.66v43.78H304.18V60.74H290.26V52.28Z"/><path class="cls-1" d="M364.9,51.64c-15.66,0-28.36,12-28.36,26.76s12.7,26.76,28.36,26.76,28.35-12,28.35-26.76S380.56,51.64,364.9,51.64Zm0,44.16a17.37,17.37,0,1,1,17.57-17.36A17.47,17.47,0,0,1,364.9,95.8Z"/><path class="cls-1" d="M211.24,45.17l-7.94,45h0a2.5,2.5,0,0,1-4.56.93l-20-30.91a12.52,12.52,0,0,0-22.83,4.63l-7.46,42.33,9.86,1.74,7.46-42.34h0a2.5,2.5,0,0,1,4.57-.92l20,30.9a12.43,12.43,0,0,0,10.47,5.72,12.74,12.74,0,0,0,2.52-.25A12.44,12.44,0,0,0,213.16,92l7.94-45Z"/></svg>