<svg width="204" height="72" viewBox="0 0 204 72" fill="none" xmlns="http://www.w3.org/2000/svg">
<path d="M123.139 26.4194C126.272 26.4195 128.16 28.1191 128.694 28.8276V26.8804H133.324V43.0659C133.324 49.9724 128.801 52.2036 123.316 52.2036C120.752 52.2036 118.152 51.4243 116.479 50.5034L117.975 46.7495C118.58 47.0684 120.717 48.0249 123.281 48.0249C125.952 48.0248 128.409 47.21 128.409 44.3413V43.4907C128.017 44.0221 126.201 45.8638 122.96 45.8638C117.582 45.8636 114.057 41.8617 114.057 36.1597C114.057 30.4574 117.832 26.4194 123.139 26.4194ZM145.05 26.4194C148.183 26.4195 150.071 28.1191 150.605 28.8276V26.8804H155.235V43.0659C155.235 49.9724 150.712 52.2036 145.228 52.2036C142.663 52.2036 140.063 51.4243 138.39 50.5034L139.886 46.7495C140.492 47.0684 142.628 48.0249 145.192 48.0249C147.863 48.0248 150.32 47.21 150.32 44.3413V43.4907C149.929 44.0221 148.112 45.8638 144.871 45.8638C139.494 45.8636 135.968 41.8617 135.968 36.1597C135.968 30.4574 139.743 26.4194 145.05 26.4194ZM5.76465 36.0884C5.76465 39.2405 7.58098 41.224 10.7861 41.2241C13.9914 41.2241 15.8076 39.2406 15.8076 36.0884V20.6108H20.8301V36.0884C20.8301 41.9324 17.2323 45.8638 10.7861 45.8638C4.34007 45.8637 0.743164 41.9323 0.743164 36.0884V20.6108H5.76465V36.0884ZM29.96 28.8286C30.423 28.1911 32.2753 26.4195 35.4805 26.4194C40.8225 26.4194 44.3125 30.422 44.3125 36.1597C44.3125 41.8619 40.5375 45.8638 35.1953 45.8638C32.026 45.8636 30.1744 44.0928 29.6758 43.4907V45.4038H25.0459V19.7964H29.96V28.8286ZM55.251 26.4194C61.0205 26.4194 64.2969 30.2448 64.2969 36.3013C64.2969 36.6554 64.2973 37.0096 64.2617 37.3638H51.1553C51.2622 39.8431 53.2566 41.6137 55.999 41.6138C58.5277 41.6138 59.9882 40.1262 60.5225 39.3472L63.7627 41.7915C63.0499 43.1021 60.5571 45.8638 55.9277 45.8638C49.9446 45.8638 46.1338 41.7555 46.1338 36.1948C46.1339 30.5989 49.9447 26.4195 55.251 26.4194ZM86.0205 26.4194C89.5458 26.4196 91.5041 28.2614 92.3945 29.7134L89.1543 32.1216C88.5845 31.4133 87.5515 30.3512 85.8066 30.3511C84.667 30.3511 83.8829 30.9177 83.8828 31.8384C83.8828 34.7781 92.7158 33.3616 92.7158 39.9849C92.7158 43.5973 89.581 45.8638 85.5566 45.8638C81.8886 45.8637 79.6096 44.022 78.6123 42.4282L81.4971 39.8784C82.423 40.941 83.6693 41.8969 85.7705 41.897C87.1593 41.897 88.0497 41.2953 88.0498 40.2329C88.0498 37.3995 79.2531 38.4971 79.2529 31.9097C79.2529 28.4741 82.2097 26.4194 86.0205 26.4194ZM100.107 38.1431C100.107 40.1972 101.532 41.472 103.206 41.4722C105.236 41.4722 106.519 39.985 106.519 38.0015V26.8804H111.434V45.4038H106.625V43.2437C105.841 44.5185 104.061 45.8636 101.64 45.8638C96.3331 45.8638 95.1934 41.508 95.1934 37.5767V26.8804H100.107V38.1431ZM167.067 26.4194C172.837 26.4194 176.114 30.2448 176.114 36.3013C176.114 36.6554 176.114 37.0096 176.078 37.3638H162.973C163.079 39.843 165.073 41.6136 167.815 41.6138C170.344 41.6138 171.805 40.1262 172.339 39.3472L175.58 41.7915C174.868 43.102 172.374 45.8638 167.744 45.8638C161.761 45.8637 157.95 41.7554 157.95 36.1948C157.95 30.599 161.761 26.4196 167.067 26.4194ZM185.003 26.4194C188.529 26.4195 190.488 28.2613 191.378 29.7134L188.137 32.1216C187.567 31.4132 186.534 30.3511 184.789 30.3511C183.649 30.3511 182.866 30.9177 182.866 31.8384C182.866 34.7781 191.697 33.3616 191.697 39.9849C191.697 43.5973 188.564 45.8637 184.54 45.8638C180.872 45.8638 178.592 44.022 177.595 42.4282L180.479 39.8784C181.405 40.9409 182.652 41.8968 184.753 41.897C186.142 41.897 187.033 41.2953 187.033 40.2329C187.033 37.3995 178.237 38.4971 178.236 31.9097C178.236 28.4741 181.192 26.4194 185.003 26.4194ZM199.626 22.9839V26.8804H203.116V30.8472H199.626V38.0015C199.626 40.7639 200.48 41.3306 202.367 41.3306C202.689 41.3306 202.866 41.3307 203.257 41.2954V45.4751C203.234 45.4803 202.489 45.6519 201.157 45.6519C196.705 45.6518 194.746 43.1723 194.746 38.1431V30.8472H192.787V26.8804H194.782V22.9839H199.626ZM76.9609 31.3784C73.293 31.3786 71.9395 33.6453 71.9395 37.3286V45.4038H67.0244V26.8804H71.833V29.5718C72.6521 27.7302 74.5038 26.4195 76.9609 26.4194V31.3784ZM34.5898 30.7407C31.8835 30.7409 29.8185 32.7242 29.8184 36.1948C29.8184 39.1343 31.5986 41.5432 34.5898 41.5435C37.3678 41.5435 39.3623 39.4886 39.3623 36.1948C39.3622 32.9719 37.4389 30.7407 34.5898 30.7407ZM123.744 30.7407C120.966 30.7407 119.007 32.8661 119.007 36.1245C119.007 39.3827 121.002 41.5433 123.779 41.5435C126.628 41.5435 128.552 39.4182 128.552 36.1245C128.552 32.9724 126.629 30.7409 123.744 30.7407ZM145.655 30.7407C142.877 30.7407 140.918 32.8661 140.918 36.1245C140.918 39.3828 142.913 41.5434 145.69 41.5435C148.54 41.5435 150.463 39.4182 150.463 36.1245C150.463 32.9724 148.54 30.7409 145.655 30.7407ZM55.3223 30.4224C53.0075 30.4224 51.5114 32.0513 51.2979 34.1763H59.3115C59.2046 31.9095 57.566 30.4224 55.3223 30.4224ZM167.139 30.4224C164.824 30.4225 163.328 32.0513 163.114 34.1763H171.128C171.021 31.9095 169.382 30.4224 167.139 30.4224Z" fill="#F16434"/>
</svg>
