<svg id="Layer_1" viewBox="0 0 512 512" xmlns="http://www.w3.org/2000/svg" data-name="Layer 1"><path d="m22.863 352.991h170.583a127.859 127.859 0 0 0 185.936 53.063l13.433 13.433-1.4 1.4a8 8 0 0 0 0 11.314l59.27 59.269a35.939 35.939 0 0 0 50.826-50.826l-59.27-59.27a8 8 0 0 0 -11.313 0l-1.4 1.4-13.433-13.433a126.613 126.613 0 0 0 9.089-16.358h28.716a22.889 22.889 0 0 0 22.863-22.863v-297.22a22.889 22.889 0 0 0 -22.863-22.867h-431.037a22.889 22.889 0 0 0 -22.863 22.867v297.228a22.889 22.889 0 0 0 22.863 22.863zm207.462 25.274a111.7 111.7 0 1 1 157.972 0 111.829 111.829 0 0 1 -157.972 0zm265.675 87.796a19.94 19.94 0 0 1 -34.006 14.1l-38.9-38.9 28.2-28.2 38.9 38.9a19.793 19.793 0 0 1 5.806 14.1zm-56.018-64.311-28.2 28.2-3.4-3.4 28.2-28.2zm-21.775-7.65-14.079 14.079-11.828-11.835q3.755-3.214 7.312-6.766t6.766-7.312zm35.69-57.1h-22.606a127.685 127.685 0 1 0 -243.96 0h-164.468a6.871 6.871 0 0 1 -6.863-6.872v-222.069h444.76v222.069a6.871 6.871 0 0 1 -6.86 6.863zm-431.034-310.967h431.037a6.87 6.87 0 0 1 6.86 6.867v59.159h-444.76v-59.159a6.87 6.87 0 0 1 6.863-6.867zm28.555 33.014a7.984 7.984 0 0 1 7.982-8h.037a8 8 0 1 1 -8.019 8zm44.615 0a7.984 7.984 0 0 1 7.981-8h.037a8 8 0 1 1 -8.018 8zm44.614 0a7.984 7.984 0 0 1 7.982-8h.037a8 8 0 1 1 -8.019 8zm157.207 0a8 8 0 0 1 8-8h98.946a8 8 0 0 1 0 16h-98.946a8 8 0 0 1 -8-8zm87.752 247.066a8 8 0 0 1 -8-8v-16.824l-42.462 41.362a8 8 0 0 1 -11.239-.074l-32.962-32.961-52.27 52.27a8 8 0 1 1 -11.314-11.313l57.928-57.927a8 8 0 0 1 11.313 0l33.036 33.035 36.292-35.353h-16.107a8 8 0 0 1 0-16h35.785a8 8 0 0 1 8 8v35.785a8 8 0 0 1 -8 8z"/></svg>