<svg id="Layer_1" viewBox="0 0 64 64" xmlns="http://www.w3.org/2000/svg" data-name="Layer 1"><path d="m57.722 44.618a2.946 2.946 0 0 0 2.943-2.943v-36.732a2.946 2.946 0 0 0 -2.943-2.943h-48.122a2.946 2.946 0 0 0 -2.94 2.943v27.047h-2.325a1 1 0 0 0 -1 1v18.11a1 1 0 0 0 1 1h17.914l3.81 9.283a1 1 0 0 0 .924.62q.036 0 .072 0a1 1 0 0 0 .9-.753l1.772-7.05 7.047-1.773a1 1 0 0 0 .136-1.9l-9.754-4v-1.909zm-48.122-40.618h48.122a.944.944 0 0 1 .943.943v5.334h-50v-5.334a.944.944 0 0 1 .935-.943zm-.94 8.277h50.005v29.4a.933.933 0 0 1 -.943.943h-30.566v-1.851h2.173a1 1 0 0 0 1-1v-.826a1 1 0 0 0 -1.984-.174h-1.189v-5.779a1 1 0 0 0 -1-1h-11.866v-3.1a1 1 0 0 0 -2 0v3.1h-3.63zm20 40.125a1 1 0 0 0 -.725.726l-1.18 4.682-4.583-11.168 3.588 1.472.016.006 7.564 3.105zm-7.939-8.518a1 1 0 0 0 -1.3 1.3l2.007 4.916h-16.093v-16.11h19.821v5.769.01.009 3.83.01.01 2.077z"/><path d="m13.288 25.215h16.041a1 1 0 0 0 1-1v-7.633a1 1 0 0 0 -1-1h-16.041a1 1 0 0 0 -1 1v7.633a1 1 0 0 0 1 1zm1-7.633h14.041v5.633h-14.041z"/><path d="m38.126 24.31a4.429 4.429 0 1 0 -4.426-4.429 4.434 4.434 0 0 0 4.426 4.429zm0-6.857a2.429 2.429 0 1 1 -2.426 2.428 2.43 2.43 0 0 1 2.426-2.428z"/><path d="m49.322 24.31a4.429 4.429 0 1 0 -4.422-4.429 4.434 4.434 0 0 0 4.422 4.429zm0-6.857a2.429 2.429 0 1 1 -2.422 2.428 2.431 2.431 0 0 1 2.422-2.428z"/><path d="m29.338 27.935a1 1 0 0 0 -1-1h-4a1 1 0 0 0 0 2h4a1 1 0 0 0 1-1z"/><path d="m29.329 29.943a1 1 0 0 0 -1 1v4a1 1 0 0 0 2 0v-4a1 1 0 0 0 -1-1z"/><path d="m20.338 26.935h-4a1 1 0 0 0 0 2h4a1 1 0 0 0 0-2z"/><path d="m35.282 28.872a1 1 0 0 0 1 1h7.182a1 1 0 0 0 0-2h-7.182a1 1 0 0 0 -1 1z"/><path d="m36.282 33.934h10.184a1 1 0 1 0 0-2h-10.184a1 1 0 0 0 0 2z"/><path d="m53 31.934h-2.532a1 1 0 1 0 0 2h2.532a1 1 0 1 0 0-2z"/><path d="m39.578 36.23h-3.3a1 1 0 0 0 0 2h3.3a1 1 0 0 0 0-2z"/><path d="m51.469 36.23h-9.241a1 1 0 0 0 0 2h9.241a1 1 0 0 0 0-2z"/><path d="m11.85 8.09a.99.99 0 0 0 1-1 .965.965 0 0 0 -.29-.7.934.934 0 0 0 -.15-.13 1.164 1.164 0 0 0 -.17-.09.749.749 0 0 0 -.19-.061.956.956 0 0 0 -.58.061.887.887 0 0 0 -.321.22.864.864 0 0 0 -.219.32 1 1 0 0 0 -.08.38 1.006 1.006 0 0 0 .3.71.971.971 0 0 0 .7.29z"/><path d="m16.45 8.09a1.009 1.009 0 0 0 1-1 1.021 1.021 0 0 0 -1.2-.981 1.5 1.5 0 0 0 -.19.061.786.786 0 0 0 -.17.09.934.934 0 0 0 -.15.13.976.976 0 0 0 -.3.7 1 1 0 0 0 .3.71.99.99 0 0 0 .71.29z"/><path d="m20.649 8.02a1.025 1.025 0 0 0 .391.07 1.012 1.012 0 0 0 .92-.611 1.041 1.041 0 0 0 .08-.389.975.975 0 0 0 -.3-.7 1.014 1.014 0 0 0 -1.41 0 .965.965 0 0 0 -.29.7.993.993 0 0 0 .29.71 1.023 1.023 0 0 0 .319.22z"/><path d="m24.92 7.8a.986.986 0 0 0 .71.29 1.012 1.012 0 0 0 .92-.611 1.041 1.041 0 0 0 .08-.389.975.975 0 0 0 -.3-.7 1.014 1.014 0 0 0 -1.41 0 .961.961 0 0 0 -.29.7 1.012 1.012 0 0 0 .07.389 1.133 1.133 0 0 0 .22.321z"/></svg>